<?xml version="1.0" standalone="no"?>
<!DOCTYPE svg PUBLIC "-//W3C//DTD SVG 20010904//EN"
 "http://www.w3.org/TR/2001/REC-SVG-20010904/DTD/svg10.dtd">
<svg version="1.0" xmlns="http://www.w3.org/2000/svg"
 width="1084.000000pt" height="1080.000000pt" viewBox="0 0 1084.000000 1080.000000"
 preserveAspectRatio="xMidYMid meet">

<g transform="translate(0.000000,1080.000000) scale(0.100000,-0.100000)"
fill="#000000" stroke="none">
<path d="M10702 6620 c0 -14 2 -19 5 -12 2 6 2 18 0 25 -3 6 -5 1 -5 -13z"/>
<path d="M10702 6375 c0 -16 2 -22 5 -12 2 9 2 23 0 30 -3 6 -5 -1 -5 -18z"/>
<path d="M10703 6080 c0 -47 2 -66 4 -42 2 23 2 61 0 85 -2 23 -4 4 -4 -43z"/>
<path d="M10703 5760 c0 -47 2 -66 4 -42 2 23 2 61 0 85 -2 23 -4 4 -4 -43z"/>
<path d="M10703 5517 c-2 -79 1 -107 8 -95 12 21 14 187 2 199 -4 4 -9 -42
-10 -104z"/>
<path d="M10703 5300 c0 -41 2 -58 4 -37 2 20 2 54 0 75 -2 20 -4 3 -4 -38z"/>
<path d="M10704 4655 c0 -323 0 -328 5 -105 3 129 3 282 0 340 -3 58 -5 -48
-5 -235z"/>
<path d="M10705 4127 c3 -74 1 -116 -5 -112 -6 4 -10 -8 -9 -27 1 -22 3 -26 6
-13 3 11 9 23 14 26 5 3 5 56 0 125 l-10 119 4 -118z"/>
<path d="M10703 3855 c0 -38 2 -53 4 -32 2 20 2 52 0 70 -2 17 -4 1 -4 -38z"/>
<path d="M10692 3655 c0 -16 2 -22 5 -12 2 9 2 23 0 30 -3 6 -5 -1 -5 -18z"/>
<path d="M10703 3400 c0 -113 0 -119 8 -62 6 35 6 89 1 125 -8 56 -9 49 -9
-63z"/>
<path d="M10705 3208 c-3 -7 -7 -164 -9 -348 -4 -351 -13 -530 -27 -530 -4 0
-7 -8 -7 -17 1 -37 -24 -208 -32 -213 -18 -12 -30 -131 -14 -137 10 -3 33 83
36 135 1 6 5 12 10 12 4 0 8 27 8 61 0 51 3 60 16 55 10 -4 13 -2 8 6 -4 6 1
17 11 25 11 7 13 13 7 13 -9 0 -11 29 -8 113 5 141 12 837 8 837 -1 0 -5 -6
-7 -12z"/>
<path d="M10500 1989 c0 -5 5 -7 10 -4 6 3 10 8 10 11 0 2 -4 4 -10 4 -5 0
-10 -5 -10 -11z"/>
<path d="M10589 1950 c-4 -34 -41 -140 -50 -146 -5 -3 -9 -16 -9 -29 0 -30
-40 -94 -60 -95 -13 0 -13 -1 0 -10 13 -8 10 -19 -18 -73 -17 -35 -32 -71 -32
-81 0 -18 -5 -19 -35 -7 -11 5 -25 4 -33 -2 -7 -5 -15 -7 -19 -3 -4 3 2 13 13
20 10 8 21 10 22 5 7 -18 23 -9 17 10 -3 10 1 24 10 31 8 7 15 19 15 27 0 8 5
11 10 8 6 -3 10 3 10 14 0 24 -16 36 -23 19 -4 -9 -6 -8 -6 2 0 8 4 22 9 30 8
13 10 13 10 -1 0 -9 7 -20 16 -23 13 -5 15 -2 11 14 -3 13 1 21 15 26 11 3 17
8 14 11 -2 3 0 17 5 32 14 35 2 111 -17 111 -10 0 -14 12 -14 40 0 36 -2 40
-25 40 -23 0 -25 -4 -25 -45 0 -25 -4 -45 -8 -45 -5 0 -19 -9 -32 -20 -23 -20
-23 -21 -4 -35 10 -8 23 -15 28 -15 4 0 -9 -21 -30 -47 -24 -29 -34 -48 -26
-51 14 -4 16 -42 2 -42 -5 0 -10 -9 -10 -19 0 -11 -4 -21 -10 -23 -14 -5 -16
-136 -2 -150 9 -9 12 -8 12 5 0 10 8 17 18 17 10 0 13 -3 6 -8 -19 -13 -25
-42 -9 -42 8 0 15 7 15 15 0 8 5 15 10 15 20 0 10 -17 -68 -115 -4 -5 -6 -18
-4 -27 2 -10 0 -18 -5 -18 -5 0 -17 -14 -27 -32 -21 -35 -35 -53 -83 -107 -18
-20 -33 -41 -33 -47 0 -25 -27 -20 -43 8 -16 28 -16 29 3 23 22 -7 69 29 70
52 0 7 6 16 13 20 7 4 20 20 30 35 14 23 14 26 2 22 -8 -4 -15 -11 -15 -18 0
-7 -4 -6 -9 3 -5 7 -6 23 -4 35 3 12 1 17 -4 10 -11 -14 -92 -34 -142 -34 -28
0 -46 -6 -61 -22 -20 -22 -20 -22 -38 -2 -11 11 -21 26 -24 34 -3 10 -10 5
-22 -17 -16 -32 -16 -33 4 -33 13 0 20 -7 20 -20 0 -17 -7 -20 -39 -20 -33 0
-40 4 -44 23 -2 12 -5 3 -6 -20 -1 -32 3 -43 14 -43 8 0 15 5 15 10 0 6 14 10
30 10 17 0 30 5 30 10 0 6 7 10 16 10 9 0 28 13 43 29 24 26 29 27 46 14 20
-14 20 -15 -2 -33 -13 -10 -23 -25 -23 -34 0 -12 -10 -16 -40 -16 -36 0 -40
-3 -40 -24 0 -14 -5 -28 -10 -31 -6 -4 -8 -11 -5 -16 4 -5 -16 -7 -47 -5 -52
4 -53 3 -77 -35 -18 -29 -32 -39 -55 -41 -29 -3 -31 -6 -34 -47 l-3 -44 -44 6
c-40 6 -43 4 -49 -18 -7 -28 -24 -33 -32 -10 -9 21 -20 10 -27 -25 -8 -36 -20
-38 -35 -7 -10 21 -11 21 -11 -8 -1 -35 12 -60 27 -51 5 3 13 -1 16 -10 10
-26 7 -34 -14 -34 -11 0 -20 -4 -20 -10 0 -14 77 -13 82 2 3 7 13 5 31 -7 33
-21 30 -40 -6 -40 -15 1 -27 -4 -27 -11 0 -6 -9 -19 -20 -29 -19 -17 -20 -17
-31 9 -12 26 -29 35 -29 16 0 -5 6 -10 13 -10 18 -1 -35 -29 -55 -30 -27 0
-24 -40 3 -40 11 0 18 4 15 9 -3 4 6 6 19 3 15 -2 25 0 25 8 0 7 13 11 33 9
45 -4 77 9 77 30 0 10 7 18 15 18 8 0 12 -4 9 -8 -2 -4 1 -9 8 -11 7 -3 -16
-26 -52 -51 -36 -26 -69 -50 -75 -55 -33 -25 -90 -52 -101 -48 -21 8 -17 28 5
21 10 -3 23 1 29 8 17 20 -28 55 -77 60 -22 2 -47 9 -55 16 -9 7 -25 11 -36 8
-17 -4 -19 1 -22 62 l-3 66 -52 3 c-37 2 -53 7 -53 17 0 28 13 45 34 45 17 0
18 2 6 10 -11 7 -8 10 15 10 26 0 33 6 43 33 15 42 15 47 -2 47 -16 0 -26 21
-26 56 0 37 -18 29 -29 -13 -6 -21 -11 -42 -11 -46 0 -14 -28 -37 -43 -37 -9
0 -18 -6 -20 -12 -4 -10 -7 -10 -15 0 -7 10 -14 11 -35 1 -15 -7 -27 -16 -27
-21 0 -4 -9 -8 -20 -8 -11 0 -20 -4 -20 -10 0 -5 -7 -10 -16 -10 -18 0 -44
-24 -44 -40 0 -7 -6 -10 -14 -7 -7 3 -17 2 -22 -3 -5 -5 -29 -10 -54 -11 -65
-4 -70 -7 -70 -45 0 -31 -3 -34 -30 -34 -31 0 -50 22 -50 59 0 20 -6 21 -104
21 -115 0 -136 -4 -136 -28 0 -8 -7 -24 -17 -34 -15 -17 -14 -18 43 -20 59 -1
59 -1 14 -7 l-45 -6 64 -8 c35 -4 90 -7 122 -7 52 0 59 -2 59 -20 0 -17 -7
-20 -42 -20 -32 0 -39 -3 -28 -10 8 -5 12 -10 8 -11 -5 -1 -12 -3 -18 -4 -5
-1 -26 -3 -45 -4 -43 -1 -47 -21 -5 -21 17 0 44 -7 60 -15 21 -11 49 -14 99
-11 52 3 71 1 75 -9 9 -23 -19 -36 -63 -29 -28 4 -41 3 -41 -5 0 -7 -9 -9 -24
-5 -17 4 -28 -1 -44 -20 -11 -14 -24 -26 -30 -26 -6 0 -7 -14 -1 -41 11 -46
-7 -87 -42 -96 -14 -4 -17 -11 -12 -33 5 -25 3 -28 -16 -23 -14 3 -23 0 -27
-11 -9 -22 -31 -20 -44 5 -8 14 -15 17 -23 11 -7 -5 -21 -6 -32 -2 -11 4 -26
5 -33 2 -20 -7 29 -44 52 -38 11 3 15 1 10 -4 -5 -5 -29 -11 -54 -13 -25 -3
29 -4 120 -2 156 2 162 1 110 -11 -30 -8 -78 -16 -107 -18 -28 -2 -57 -7 -63
-11 -7 -4 -52 -9 -100 -11 -64 -2 -92 1 -106 11 -17 13 -15 14 23 15 52 0 61
13 31 48 l-23 27 -120 -3 c-66 -2 -122 -6 -125 -9 -2 -2 2 -8 9 -12 11 -7 11
-10 0 -15 -8 -3 4 -3 26 0 27 3 46 0 60 -10 17 -13 17 -15 3 -16 -9 0 -18 4
-20 10 -2 7 -24 7 -63 0 l-60 -9 53 3 c28 2 52 0 52 -5 0 -4 8 -9 18 -12 9 -2
-3 -2 -28 -1 -79 6 -246 11 -207 7 20 -2 37 -7 37 -11 0 -4 51 -9 113 -10 61
-2 135 -7 162 -11 34 -6 -46 -9 -250 -11 -165 -1 -471 -4 -680 -6 -209 -1
-1335 -3 -2502 -4 -1395 0 -2123 -4 -2123 -10 0 -9 18 -11 148 -13 26 -1 49
-4 52 -8 3 -3 52 -4 108 0 102 6 159 -2 91 -13 -79 -13 -80 -14 -4 -9 44 2 84
9 89 14 20 19 122 8 110 -12 -3 -5 7 -9 23 -9 21 0 24 3 14 9 -22 14 29 25 81
17 24 -3 158 -8 298 -11 140 -2 338 -7 440 -11 228 -7 304 -6 308 7 2 5 58 9
125 9 88 0 118 -3 107 -11 -11 -7 -6 -8 19 -3 50 9 113 7 121 -6 8 -12 52 -9
62 5 5 6 8 6 8 -1 0 -8 511 -11 1863 -11 1024 0 1842 4 1817 7 -38 6 -32 7 38
8 47 1 82 6 82 12 0 6 7 10 16 10 9 0 12 5 8 13 -5 7 0 6 11 -3 10 -8 16 -10
12 -4 -9 16 26 24 69 17 21 -4 40 -1 51 8 9 8 14 10 11 4 -3 -5 -1 -14 6 -20
14 -12 58 -16 50 -4 -5 9 24 14 65 10 13 -1 33 6 45 16 11 11 38 28 59 38 20
11 37 23 37 27 0 5 9 8 20 8 13 0 18 -5 14 -15 -7 -18 10 -20 28 -2 7 7 22 17
33 21 13 5 16 10 7 13 -6 3 -10 9 -6 14 8 14 24 11 24 -6 0 -8 2 -15 5 -15 12
0 75 35 75 42 0 4 18 8 40 8 22 0 40 5 40 10 0 6 9 10 19 10 10 0 21 6 24 13
4 10 -2 13 -21 11 -20 -3 -18 -1 7 7 27 8 32 13 20 20 -10 7 -1 8 27 4 38 -6
42 -4 65 29 13 20 31 36 39 36 12 1 11 3 -2 11 -19 11 -25 49 -7 49 5 0 7 -5
3 -12 -5 -8 0 -9 17 -4 13 4 30 8 37 8 7 1 10 8 7 17 -4 13 5 17 48 19 41 2
56 8 70 27 10 13 32 27 50 30 18 4 39 14 48 22 9 7 21 13 26 11 20 -7 82 26
85 45 2 11 10 23 18 27 8 4 28 14 44 21 16 8 36 29 44 47 14 29 14 34 2 43
-13 8 -13 11 2 19 9 6 15 17 12 24 -3 7 2 16 11 20 11 4 14 2 10 -7 -4 -6 1
-3 10 8 24 28 45 80 45 109 0 14 5 28 10 31 6 4 8 11 5 16 -4 5 0 16 8 23 8 8
17 33 21 56 5 31 10 40 21 36 18 -7 32 14 15 24 -17 11 6 54 26 46 8 -3 14 0
14 7 0 7 10 17 23 22 12 6 21 18 21 28 -1 9 5 17 13 17 12 0 14 7 9 31 -5 25
-3 30 9 26 8 -4 16 2 20 14 4 10 18 33 32 50 21 25 24 32 12 39 -11 7 -10 10
4 16 12 4 16 13 12 22 -3 9 -3 13 1 10 10 -11 46 12 41 25 -2 7 5 20 16 29 15
14 18 25 13 52 -4 22 -2 37 5 42 9 5 10 1 7 -14 -4 -12 -2 -22 3 -22 5 0 9 15
9 33 0 18 9 49 20 70 11 20 20 53 20 72 0 19 5 35 10 35 6 0 10 -6 10 -13 0
-8 7 -14 15 -14 16 0 19 9 8 21 -11 11 -13 79 -3 91 5 6 12 30 16 53 3 23 10
39 15 36 5 -3 9 9 9 25 0 28 -18 46 -21 21z m-209 -315 c0 -8 -4 -15 -10 -15
-5 0 -10 7 -10 15 0 8 5 15 10 15 6 0 10 -7 10 -15z m-31 -62 c0 -25 -1 -26
-9 -8 -12 27 -12 35 0 35 6 0 10 -12 9 -27z m39 -98 c0 -14 -4 -28 -9 -31 -12
-7 -23 22 -15 41 9 24 24 17 24 -10z m-523 -685 c-15 -16 -32 -27 -36 -24 -4
2 -12 -4 -18 -13 -12 -20 -14 -13 -5 11 3 9 12 16 18 16 7 0 23 11 36 25 13
14 26 23 28 20 3 -3 -7 -19 -23 -35z m-745 -28 c0 -10 5 -23 12 -30 9 -9 3
-12 -28 -12 -28 0 -43 5 -52 20 -11 18 -10 20 8 20 11 0 20 5 20 10 0 6 9 10
20 10 13 0 20 -7 20 -18z m651 -55 c-13 -13 -26 -3 -16 12 3 6 11 8 17 5 6 -4
6 -10 -1 -17z m-41 -32 c-7 -8 -17 -15 -23 -15 -6 0 -2 7 9 15 25 19 30 19 14
0z m-40 -25 c0 -5 -5 -10 -11 -10 -5 0 -7 5 -4 10 3 6 8 10 11 10 2 0 4 -4 4
-10z m-293 -190 c1 -11 -4 -20 -10 -20 -7 0 -13 9 -13 20 0 11 5 20 11 20 6 0
11 -9 12 -20z m258 10 c3 -6 -4 -10 -17 -10 -18 0 -20 2 -8 10 19 12 18 12 25
0z m-350 -80 c-3 -5 -10 -10 -16 -10 -5 0 -9 5 -9 10 0 6 7 10 16 10 8 0 12
-4 9 -10z m-215 -94 c0 -2 -7 -7 -16 -10 -8 -3 -12 -2 -9 4 6 10 25 14 25 6z
m-88 -28 c-9 -9 -15 -9 -24 0 -9 9 -7 12 12 12 19 0 21 -3 12 -12z m-75 -34
c-3 -3 -12 -4 -19 -1 -8 3 -5 6 6 6 11 1 17 -2 13 -5z m-107 -28 c0 -2 -7 -7
-16 -10 -8 -3 -12 -2 -9 4 6 10 25 14 25 6z m-84 -31 c-35 -19 -40 -19 -24 0
7 8 22 14 33 15 16 0 14 -3 -9 -15z m227 -59 c3 -8 0 -17 -8 -19 -17 -7 -25 1
-18 19 7 18 19 18 26 0z m-5383 -52 c-58 -8 -150 -8 -150 -1 0 4 39 6 88 6 48
-1 76 -3 62 -5z m1233 -11 c-5 -12 -3 -14 8 -7 8 4 22 7 33 5 13 -2 16 1 10
11 -4 7 -3 9 1 5 13 -12 15 -36 3 -44 -7 -4 -8 -1 -3 7 6 10 0 11 -29 6 -23
-4 -36 -3 -36 4 0 5 -19 11 -42 12 l-43 1 50 7 c28 4 51 8 52 8 1 1 -1 -5 -4
-15z m205 10 c-10 -2 -26 -2 -35 0 -10 3 -2 5 17 5 19 0 27 -2 18 -5z m-1301
-9 c-3 -3 -12 -4 -19 -1 -8 3 -5 6 6 6 11 1 17 -2 13 -5z m751 -1 c-10 -2 -28
-2 -40 0 -13 2 -5 4 17 4 22 1 32 -1 23 -4z m687 -3 c17 -7 16 -9 -10 -11
l-30 -2 35 -7 c29 -6 23 -7 -30 -8 -36 0 -78 4 -95 7 -29 7 -28 8 17 15 26 5
51 5 57 2 5 -4 12 -2 16 4 7 12 13 12 40 0z m-1598 -6 c-3 -3 -12 -4 -19 -1
-8 3 -5 6 6 6 11 1 17 -2 13 -5z m794 -12 c-13 -2 -27 0 -32 5 -6 6 3 7 23 4
28 -4 29 -6 9 -9z m1098 14 c-2 -2 -60 -5 -129 -8 -69 -3 -105 -2 -80 2 47 7
216 13 209 6z m229 -11 c8 -7 -149 -16 -159 -9 -24 14 24 23 91 17 36 -3 66
-7 68 -8z m186 4 c-38 -6 -71 -5 -85 0 -18 7 -2 10 61 9 l85 0 -61 -9z m251 1
c40 -6 43 -7 15 -8 -19 0 -57 3 -85 8 -40 6 -43 7 -15 8 19 0 58 -3 85 -8z
m1068 3 c-13 -2 -35 -2 -50 0 -16 2 -5 4 22 4 28 0 40 -2 28 -4z m-2200 -10
c-7 -2 -19 -2 -25 0 -7 3 -2 5 12 5 14 0 19 -2 13 -5z m1000 -10 c-13 -2 -33
-2 -45 0 -13 2 -3 4 22 4 25 0 35 -2 23 -4z"/>
<path d="M10481 1908 c1 -17 3 -18 6 -5 2 9 8 17 13 17 5 0 11 -8 14 -17 4
-14 4 -14 3 2 -3 30 -37 33 -36 3z"/>
<path d="M10203 1843 c-40 -4 -43 -6 -43 -33 0 -32 14 -40 73 -40 38 0 39 1
21 15 -18 14 -17 14 16 16 l35 1 -32 10 c-30 10 -31 12 -15 24 13 11 14 13 2
12 -8 -1 -34 -3 -57 -5z"/>
<path d="M10551 1624 c0 -11 3 -14 6 -6 3 7 2 16 -1 19 -3 4 -6 -2 -5 -13z"/>
<path d="M10274 1380 c0 -11 5 -19 11 -17 5 2 10 10 10 17 0 7 -5 15 -10 17
-6 2 -11 -6 -11 -17z"/>
<path d="M10225 1348 c-44 -26 -49 -37 -25 -58 13 -11 28 -20 34 -20 6 0 4 5
-4 10 -13 9 -13 11 0 20 8 5 21 10 28 10 15 0 13 42 -3 46 -5 2 -19 -2 -30 -8z"/>
<path d="M10120 1306 c0 -8 5 -18 10 -21 6 -3 10 3 10 14 0 12 -4 21 -10 21
-5 0 -10 -6 -10 -14z"/>
<path d="M10365 1310 c-3 -6 1 -7 9 -4 18 7 21 14 7 14 -6 0 -13 -4 -16 -10z"/>
<path d="M10080 1290 c0 -5 5 -10 10 -10 6 0 10 5 10 10 0 6 -4 10 -10 10 -5
0 -10 -4 -10 -10z"/>
<path d="M10336 1221 c-4 -7 -5 -15 -2 -18 9 -9 19 4 14 18 -4 11 -6 11 -12 0z"/>
<path d="M9770 1110 c0 -5 9 -10 20 -10 11 0 20 5 20 10 0 6 -9 10 -20 10 -11
0 -20 -4 -20 -10z"/>
<path d="M9627 1026 c-4 -10 -5 -21 -2 -24 9 -9 17 6 13 25 -3 17 -4 17 -11
-1z"/>
<path d="M9720 1015 c0 -8 9 -15 20 -15 24 0 27 15 4 24 -22 9 -24 8 -24 -9z"/>
<path d="M9550 946 c0 -23 19 -29 35 -12 21 20 19 26 -10 26 -15 0 -25 -6 -25
-14z"/>
<path d="M9462 825 c0 -16 2 -22 5 -12 2 9 2 23 0 30 -3 6 -5 -1 -5 -18z"/>
<path d="M980 680 c0 -5 12 -17 28 -27 32 -21 43 -34 36 -45 -3 -4 2 -5 10 -2
19 7 22 -12 4 -20 -7 -3 -2 -3 11 0 19 5 23 3 18 -9 -4 -12 -2 -14 10 -10 10
4 14 2 10 -4 -9 -14 16 -23 34 -12 11 7 9 12 -11 26 -14 10 -53 39 -87 65 -35
26 -63 43 -63 38z"/>
<path d="M9600 680 c0 -5 5 -10 10 -10 6 0 10 5 10 10 0 6 -4 10 -10 10 -5 0
-10 -4 -10 -10z"/>
<path d="M950 670 c0 -5 5 -10 10 -10 6 0 10 5 10 10 0 6 -4 10 -10 10 -5 0
-10 -4 -10 -10z"/>
<path d="M8578 593 c12 -2 32 -2 45 0 12 2 2 4 -23 4 -25 0 -35 -2 -22 -4z"/>
<path d="M9475 551 c-9 -16 45 -23 60 -8 11 12 8 14 -20 15 -19 1 -37 -3 -40
-7z"/>
<path d="M1147 543 c-13 -13 -7 -21 13 -16 11 3 17 9 14 14 -6 11 -18 12 -27
2z"/>
<path d="M1205 510 c3 -5 11 -10 16 -10 6 0 7 5 4 10 -3 6 -11 10 -16 10 -6 0
-7 -4 -4 -10z"/>
<path d="M1447 368 c21 -10 22 -12 5 -25 -15 -13 -15 -13 4 -4 17 8 25 7 34
-4 7 -8 17 -15 22 -15 5 0 24 -16 43 -35 28 -30 38 -35 62 -30 19 5 24 4 15
-3 -14 -10 11 -20 68 -28 14 -2 34 -5 45 -6 11 -2 26 -9 33 -15 7 -7 23 -14
35 -15 84 -6 141 -19 150 -34 4 -8 12 -14 18 -14 5 0 28 -12 51 -26 35 -22 44
-24 66 -14 24 11 41 2 42 -22 0 -5 11 -8 25 -8 14 0 25 -4 25 -10 0 -17 26
-11 45 10 21 23 58 24 175 4 50 -9 100 -11 150 -6 l75 8 -90 7 c-49 3 -115 9
-145 12 -30 4 -73 8 -95 10 -22 1 -40 4 -40 5 0 2 -9 4 -20 6 -18 2 -109 19
-160 30 -11 2 -47 11 -80 19 -33 9 -70 16 -82 17 -13 0 -23 4 -23 8 0 4 -12
11 -27 16 -36 10 -33 9 -68 23 -16 7 -41 17 -55 21 -14 5 -70 27 -124 49 -54
23 -101 39 -104 37 -2 -3 -21 6 -41 19 -19 14 -40 25 -46 24 -5 0 0 -5 12 -11z
m358 -156 c-3 -3 -11 0 -18 7 -9 10 -8 11 6 5 10 -3 15 -9 12 -12z m269 -81
c11 -4 15 -10 10 -13 -10 -6 -54 8 -54 17 0 7 21 5 44 -4z"/>
<path d="M9415 250 c-3 -5 -1 -10 4 -10 6 0 11 5 11 10 0 6 -2 10 -4 10 -3 0
-8 -4 -11 -10z"/>
<path d="M8450 232 c0 -4 16 -9 35 -10 19 -2 35 2 35 8 0 5 -16 10 -35 10 -19
0 -35 -4 -35 -8z"/>
<path d="M7720 189 c0 -4 -8 -10 -17 -12 -10 -3 4 -5 30 -6 34 -1 47 3 45 11
-5 13 -58 20 -58 7z"/>
<path d="M7865 180 l-30 -20 87 0 c48 0 90 4 93 10 3 6 -1 7 -10 4 -11 -5 -14
-2 -9 10 10 25 -92 22 -131 -4z"/>
<path d="M7670 149 c-12 -7 -12 -9 -1 -9 11 0 11 -3 1 -15 -10 -13 -9 -15 8
-15 12 0 24 5 27 10 3 6 1 10 -5 10 -6 0 -9 4 -5 9 8 14 -9 21 -25 10z"/>
<path d="M7428 113 c17 -2 47 -2 65 0 17 2 3 4 -33 4 -36 0 -50 -2 -32 -4z"/>
<path d="M7778 113 c12 -2 32 -2 45 0 12 2 2 4 -23 4 -25 0 -35 -2 -22 -4z"/>
<path d="M8708 53 c6 -2 18 -2 25 0 6 3 1 5 -13 5 -14 0 -19 -2 -12 -5z"/>
<path d="M8908 53 c12 -2 30 -2 40 0 9 3 -1 5 -23 4 -22 0 -30 -2 -17 -4z"/>
<path d="M3748 13 c18 -2 45 -2 60 0 15 2 0 4 -33 4 -33 0 -45 -2 -27 -4z"/>
</g>
</svg>
